#!OML:ASF E:\Style4\Style4.ASF
:FULLY-SPECIFIED
:DEGREES
2248
root -0.300359 17.0592 -1.15288 4.51812 21.0428 2.9433
lowerback 19.8637 4.9285 0.277238
upperback 10.3966 6.59275 -0.713037
thorax 0.302641 3.40524 -2.15258
lowerneck 7.00792 -0.932709 -3.72269
upperneck 2.45508 -1.47908 3.09259
head -0.364875 -0.781996 1.62871
rclavicle -5.84427e-014 8.74653e-015
rhumerus 14.089 19.7277 -81.4517
rradius 126.517
rwrist 18.5914
rhand 30.1862 -11.0292
rfingers 7.12502
rthumb 53.8743 -29.9519
lclavicle -5.84427e-014 8.74653e-015
lhumerus 17.2373 -18.5466 80.4752
lradius 131.661
lwrist -16.029
lhand 25.3717 43.9764
lfingers 7.12502
lthumb 49.5022 65.4566
rfemur -26.8263 -20.6239 17.8035
rtibia 51.8743
rfoot -27.0032 -22.7062
rtoes -8.14257
lfemur -31.1808 -7.7715 -20.8788
ltibia 47.301
lfoot -18.7403 2.82391
ltoes -17.1731
2249
root -0.303406 17.0397 -1.15865 4.43951 21.0354 3.14458
lowerback 19.9515 4.94162 0.148789
upperback 10.4696 6.58901 -0.76828
thorax 0.330972 3.40212 -2.14282
lowerneck 7.18781 -0.952869 -3.73772
upperneck 2.3773 -1.51118 3.09475
head -0.418441 -0.799013 1.63549
rclavicle 3.45885e-014 -2.70347e-014
rhumerus 14.528 19.7391 -81.2586
rradius 126.396
rwrist 18.832
rhand 30.2367 -11.1826
rfingers 7.12502
rthumb 53.9196 -30.0748
lclavicle 3.45885e-014 -2.70347e-014
lhumerus 17.6528 -18.5365 80.3726
lradius 131.512
lwrist -16.4267
lhand 25.0224 44.1484
lfingers 7.12502
lthumb 49.1817 65.7905
rfemur -26.8419 -20.7554 17.5357
rtibia 52.1985
rfoot -27.1888 -22.4876
rtoes -7.98085
lfemur -31.1574 -7.76013 -21.1094
ltibia 47.5271
lfoot -18.8086 2.7716
ltoes -16.863
2250
root -0.306296 17.0219 -1.16496 4.35192 20.9938 3.28502
lowerback 20.0284 4.95759 0.0424543
upperback 10.5564 6.59323 -0.790056
thorax 0.378294 3.40286 -2.10973
lowerneck 7.13224 -0.925337 -3.84201
upperneck 2.53656 -1.48198 3.15208
head -0.359447 -0.785412 1.6698
rclavicle -1.63003e-014 3.65764e-014
rhumerus 15.0031 19.7724 -81.0356
rradius 126.288
rwrist 19.0357
rhand 30.3295 -11.3106
rfingers 7.12502
rthumb 54.003 -30.1466
lclavicle -1.63003e-014 3.65764e-014
lhumerus 18.0011 -18.4233 80.3501
lradius 131.37
lwrist -16.7328
lhand 24.9998 44.2161
lfingers 7.12502
lthumb 49.1609 65.8685
rfemur -26.8749 -20.8431 17.3413
rtibia 52.4927
rfoot -27.2208 -22.4203
rtoes -8.33316
lfemur -31.1529 -7.72197 -21.2748
ltibia 47.7462
lfoot -18.9186 2.74575
ltoes -16.7875
2251
root -0.310507 17.0072 -1.1681 4.17591 20.9604 3.31576
lowerback 20.1762 4.99067 0.0738023
upperback 10.6452 6.64227 -0.797267
thorax 0.407896 3.43123 -2.1519
lowerneck 7.13119 -0.936014 -3.89328
upperneck 2.63845 -1.50041 3.18068
head -0.326243 -0.795112 1.68768
rclavicle -3.77691e-014 6.75868e-014
rhumerus 15.4053 19.7263 -80.9081
rradius 126.196
rwrist 19.2913
rhand 30.5088 -11.337
rfingers 7.12502
rthumb 54.1638 -30.0637
lclavicle -3.77691e-014 6.75868e-014
lhumerus 18.2885 -18.5562 80.2828
lradius 131.247
lwrist -17.3595
lhand 24.8454 44.2236
lfingers 7.12502
lthumb 49.0192 65.9465
rfemur -26.8151 -20.9086 17.2414
rtibia 52.7474
rfoot -27.2804 -22.3432
rtoes -8.25623
lfemur -31.0759 -7.64346 -21.329
ltibia 47.9571
lfoot -19.0384 2.73725
ltoes -16.9068
2252
root -0.316442 16.9942 -1.1725 4.01145 20.9554 3.35393
lowerback 20.383 5.02747 0.101905
upperback 10.6982 6.6936 -0.825396
thorax 0.371892 3.46028 -2.22271
lowerneck 7.32294 -0.990352 -3.77917
upperneck 2.49959 -1.568 3.10834
head -0.400508 -0.828112 1.64899
rclavicle -9.14409e-014 2.54444e-014
rhumerus 15.6787 19.6077 -80.9151
rradius 126.205
rwrist 19.5293
rhand 30.7826 -11.4283
rfingers 7.12502
rthumb 54.4091 -29.9859
lclavicle -9.14409e-014 2.54444e-014
lhumerus 18.6161 -18.7417 80.177
lradius 131.164
lwrist -17.7945
lhand 24.6668 44.3063
lfingers 7.12502
lthumb 48.8551 66.1101
rfemur -26.7653 -20.9661 17.1488
rtibia 52.9718
rfoot -27.3468 -22.2994
rtoes -8.26491
lfemur -31.0251 -7.55692 -21.3872
ltibia 48.1665
lfoot -19.1024 2.73134
ltoes -17.2465
2253
root -0.322031 16.9829 -1.17669 3.91123 20.9313 3.35987
lowerback 20.4951 5.06987 0.137895
upperback 10.7622 6.75516 -0.831555
thorax 0.393706 3.49449 -2.26713
lowerneck 7.39825 -1.03304 -3.74438
upperneck 2.41065 -1.62317 3.08756
head -0.439428 -0.855453 1.63914
rclavicle -9.66093e-014 4.13472e-014
rhumerus 15.9239 19.4931 -80.8933
rradius 126.287
rwrist 19.6345
rhand 30.9116 -11.4902
rfingers 7.12502
rthumb 54.5246 -29.9672
lclavicle -9.66093e-014 4.13472e-014
lhumerus 18.9851 -18.7414 80.1041
lradius 131.159
lwrist -17.8167
lhand 24.8278 44.4405
lfingers 7.12502
lthumb 49.003 66.1714
rfemur -26.794 -21.0023 17.123
rtibia 53.1722
rfoot -27.403 -22.3046
rtoes -8.20904
lfemur -31.0564 -7.46341 -21.3999
ltibia 48.3729
lfoot -19.1485 2.6892
ltoes -17.4965
2254
root -0.326321 16.9712 -1.17988 3.82292 20.9234 3.33895
lowerback 20.585 5.12596 0.269621
upperback 10.8289 6.85135 -0.859268
thorax 0.44531 3.55143 -2.39094
lowerneck 7.34511 -1.14473 -3.68668
upperneck 2.40811 -1.76467 3.13987
head -0.426169 -0.925651 1.64854
rclavicle 7.196e-014 -3.18055e-014
rhumerus 16.1068 19.2698 -80.8739
rradius 126.366
rwrist 19.6071
rhand 30.8424 -11.5561
rfingers 7.12502
rthumb 54.4627 -30.0764
lclavicle 7.196e-014 -3.18055e-014
lhumerus 19.3388 -18.9238 79.9527
lradius 131.171
lwrist -17.7654
lhand 24.9142 44.4878
lfingers 7.12502
lthumb 49.0824 66.1794
rfemur -26.8317 -21.072 17.1378
rtibia 53.3595
rfoot -27.4033 -22.3226
rtoes -8.27188
lfemur -31.0963 -7.43062 -21.3738
ltibia 48.5697
lfoot -19.2064 2.58876
ltoes -17.2193
2255
root -0.329684 16.9596 -1.1826 3.76192 20.8733 3.36889
lowerback 20.6602 5.16781 0.282444
upperback 10.8784 6.90773 -0.890663
thorax 0.470703 3.58273 -2.44564
lowerneck 7.35485 -1.26728 -3.63849
upperneck 2.34588 -1.92279 3.14196
head -0.441905 -1.00407 1.64514
rclavicle 1.90833e-014 1.59028e-015
rhumerus 16.193 19.1753 -80.9727
rradius 126.462
rwrist 19.5714
rhand 30.7806 -11.4829
rfingers 7.12502
rthumb 54.4074 -30.0417
lclavicle 1.90833e-014 1.59028e-015
lhumerus 19.4959 -19.0344 79.8546
lradius 131.23
lwrist -17.7422
lhand 25.0538 44.4301
lfingers 7.12502
lthumb 49.2106 66.0577
rfemur -26.8849 -21.1398 17.0908
rtibia 53.531
rfoot -27.3275 -22.3061
rtoes -8.78311
lfemur -31.1219 -7.36365 -21.4117
ltibia 48.7453
lfoot -19.2534 2.5581
ltoes -17.1145
